<svg width="128" height="128" viewBox="0 0 128 128" fill="none" xmlns="http://www.w3.org/2000/svg">
<rect width="128" height="128" rx="16" fill="black"/>
<path fill-rule="evenodd" clip-rule="evenodd" d="M99.6424 49.0833L86.9145 36.3553V23.6274L106.006 42.7193L112.37 49.0833L106.006 55.4472L70.6511 90.8026L64.2871 97.1665L57.9231 90.8026L22.5678 55.4472L16.2038 49.0833L22.5678 42.7193L38.4777 26.8094V39.5373L28.9318 49.0833L64.2871 84.4386L99.6424 49.0833ZM74.1866 49.0835L64.2871 39.184L54.3876 49.0835L64.2871 58.983L74.1866 49.0835ZM64.2871 26.4561L41.6597 49.0835L64.2871 71.7109L86.9145 49.0835L64.2871 26.4561ZM89.743 88.6814L81.2577 80.1961L74.8937 86.5601L89.743 101.409V88.6814ZM53.6805 86.5601L38.4777 101.763V89.035L47.3165 80.1961L53.6805 86.5601Z" fill="white"/>
</svg>
